<?xml version="1.0" standalone="no"?>
<!DOCTYPE svg PUBLIC "-//W3C//DTD SVG 20010904//EN"
 "http://www.w3.org/TR/2001/REC-SVG-20010904/DTD/svg10.dtd">
<svg version="1.0" xmlns="http://www.w3.org/2000/svg"
 width="1024.000000pt" height="1024.000000pt" viewBox="0 0 1024.000000 1024.000000"
 preserveAspectRatio="xMidYMid meet">

<g transform="translate(0.000000,1024.000000) scale(0.100000,-0.100000)"
fill="red" stroke="none">
<path d="M4748 8853 c7 -3 16 -2 19 1 4 3 -2 6 -13 5 -11 0 -14 -3 -6 -6z"/>
<path d="M4854 8850 c-12 -12 -184 -17 -202 -6 -7 4 -12 2 -12 -4 0 -6 -4 -9
-9 -6 -5 3 -28 -1 -52 -9 -23 -9 -64 -16 -91 -18 -29 -1 -48 -7 -48 -14 0 -7
-17 -15 -37 -18 -39 -6 -132 -23 -168 -30 -11 -3 -44 -10 -72 -16 -29 -6 -53
-15 -53 -20 0 -11 3 -11 37 2 15 5 24 7 20 2 -5 -4 -23 -13 -40 -20 l-32 -12
35 3 c19 2 35 5 35 6 0 7 45 7 50 0 4 -7 13 -6 26 1 27 14 105 26 304 46 286
29 783 16 1025 -27 30 -5 111 -19 180 -31 69 -12 130 -22 135 -24 6 -1 24 -5
40 -9 75 -17 272 -72 360 -101 28 -8 70 -20 95 -25 25 -5 53 -12 63 -15 9 -4
17 -3 17 3 0 6 -15 14 -32 17 -18 4 -39 12 -45 17 -7 6 -13 7 -13 4 0 -4 -9
-2 -20 4 -10 6 -17 16 -14 23 5 14 -131 62 -173 61 -12 0 -20 3 -17 8 3 4 -8
10 -23 13 -15 3 -75 17 -133 31 -58 14 -114 28 -125 30 -11 2 -30 6 -41 9 -12
4 -25 2 -28 -4 -4 -6 -13 -11 -19 -11 -9 0 -8 3 1 8 9 6 1 12 -25 20 -55 16
-175 36 -197 33 -12 -2 -16 2 -11 9 5 8 -5 10 -39 5 -25 -4 -46 -3 -46 1 0 5
-16 10 -35 11 -93 3 -106 6 -115 22 -6 10 -9 11 -10 3 0 -7 -5 -10 -10 -7 -6
4 -8 12 -4 18 3 7 -2 3 -10 -7 -9 -11 -16 -15 -16 -8 0 8 -17 10 -55 6 -58 -5
-70 1 -32 16 21 8 21 9 1 9 -11 1 -24 -2 -28 -6 -4 -4 -43 -8 -87 -8 -64 0
-79 3 -79 15 0 13 -2 13 -9 1 -7 -10 -20 -12 -51 -7 -27 4 -39 3 -35 -4 3 -6
0 -7 -9 -4 -9 3 -13 10 -10 15 7 12 0 11 -12 -1z m1331 -248 c-3 -3 -11 0 -18
7 -9 10 -8 11 6 5 10 -3 15 -9 12 -12z m111 -22 c15 -6 25 -13 22 -15 -3 -3
-20 1 -39 9 -38 17 -25 21 17 6z"/>
<path d="M5656 8841 c-35 -13 99 -38 239 -46 28 -1 63 -7 78 -14 16 -6 38 -11
50 -10 35 1 -133 50 -179 52 -23 1 -40 5 -38 8 2 4 -17 9 -43 13 -32 4 -49 2
-54 -6 -5 -8 -11 -9 -21 -1 -7 6 -22 7 -32 4z"/>
<path d="M6165 8710 c6 -10 64 -24 71 -17 3 2 -13 9 -36 15 -22 5 -38 6 -35 2z"/>
<path d="M4755 8700 c-44 -5 -111 -11 -148 -14 -162 -15 -343 -44 -377 -61
-25 -13 -194 -46 -228 -44 -9 0 12 11 48 24 l65 24 -61 -2 c-34 -1 -60 -5 -57
-9 2 -5 -6 -8 -19 -8 -13 0 -51 -9 -85 -19 -35 -11 -63 -17 -63 -15 0 2 -36
-12 -81 -31 -44 -19 -89 -35 -99 -35 -20 0 -54 -29 -45 -38 3 -3 11 0 17 6 18
18 49 15 41 -3 -3 -9 -8 -13 -11 -11 -3 3 -12 0 -20 -6 -8 -7 -19 -13 -26 -14
-6 -1 -36 -16 -66 -34 -30 -18 -75 -44 -100 -58 -71 -39 -82 -45 -140 -83 -54
-36 -101 -79 -85 -79 5 0 17 8 27 17 18 16 18 16 12 -1 -7 -18 -135 -106 -154
-106 -6 0 -10 -4 -10 -9 0 -5 -17 -15 -37 -22 -21 -7 -53 -23 -70 -37 -18 -13
-33 -21 -33 -18 0 4 -13 -2 -30 -14 -56 -40 -30 -1 31 47 33 26 79 63 102 82
23 18 51 37 64 42 12 4 23 18 25 31 2 13 15 28 31 36 20 10 27 19 22 30 -3 9
-3 13 1 10 4 -4 25 8 47 27 22 19 44 35 49 35 5 0 26 11 47 25 57 35 191 105
199 103 4 -2 28 10 55 25 26 15 67 38 92 52 25 14 45 28 45 31 0 3 -4 3 -9 0
-5 -4 -12 0 -14 6 -4 10 -6 10 -6 1 -1 -7 -8 -13 -16 -13 -13 0 -72 -24 -155
-63 -14 -6 -36 -19 -49 -29 -13 -10 -34 -18 -48 -18 -13 0 -42 -12 -65 -26
-23 -15 -53 -32 -67 -38 -14 -6 -59 -33 -99 -59 -40 -26 -75 -47 -78 -47 -5 0
-22 -13 -53 -40 -9 -9 -33 -26 -53 -38 -20 -12 -39 -29 -42 -38 -3 -8 -10 -13
-16 -9 -5 3 -15 -3 -21 -14 -7 -10 -19 -17 -26 -14 -7 3 -13 0 -13 -6 0 -6 -6
-11 -14 -11 -7 0 -27 -12 -43 -27 -17 -16 -50 -40 -74 -55 -49 -31 -108 -77
-187 -145 -29 -25 -69 -58 -90 -73 -44 -32 -110 -100 -97 -100 4 0 -21 -30
-56 -68 -35 -37 -81 -87 -101 -112 -20 -25 -53 -65 -74 -90 -20 -25 -41 -55
-47 -67 -6 -13 -14 -23 -18 -23 -4 0 -29 -33 -55 -72 -27 -40 -50 -75 -54 -78
-3 -3 -20 -34 -39 -70 -18 -36 -44 -79 -57 -97 -27 -35 -30 -47 -11 -38 6 4 4
0 -5 -8 -10 -8 -18 -24 -18 -36 0 -12 -4 -19 -10 -16 -6 3 -7 -1 -4 -9 3 -9 2
-16 -4 -16 -5 0 -15 -15 -22 -32 -7 -18 -18 -47 -25 -63 -44 -100 -55 -128
-55 -142 0 -25 8 -12 54 90 24 53 46 94 50 90 3 -3 6 1 6 11 0 9 11 34 24 55
14 21 22 41 19 45 -3 3 -1 12 6 20 6 7 24 36 39 63 15 27 39 65 55 84 69 86
107 138 107 146 0 6 10 18 21 29 12 10 39 46 62 79 22 33 45 65 51 70 6 6 55
63 109 127 88 105 203 218 222 218 4 0 16 11 27 26 33 41 138 114 160 110 11
-2 58 55 53 65 -3 5 1 6 9 3 12 -5 13 -11 6 -25 -9 -15 -8 -17 7 -12 10 4 -6
-12 -34 -35 -131 -105 -371 -352 -527 -542 -109 -134 -242 -346 -361 -575 -22
-44 -46 -89 -52 -100 -11 -20 -14 -27 -53 -125 -31 -78 -50 -122 -61 -142 -5
-10 -9 -27 -9 -37 0 -11 -4 -23 -10 -26 -5 -3 -10 -17 -10 -31 0 -13 -3 -24
-7 -24 -5 0 -9 -15 -10 -34 -1 -19 -9 -48 -17 -64 -9 -17 -16 -43 -16 -57 0
-15 -5 -36 -11 -47 -13 -23 -41 -147 -64 -278 -8 -47 -22 -107 -30 -135 -24
-75 -43 -189 -50 -290 -4 -50 -12 -97 -20 -105 -7 -8 -15 -22 -18 -30 -4 -12
-6 -11 -6 3 -1 9 -6 17 -11 17 -7 0 -8 -6 -2 -17 6 -9 6 -29 2 -45 -7 -23 -5
-28 8 -28 10 0 13 -3 6 -8 -13 -9 -10 -152 6 -237 5 -33 11 -66 12 -73 1 -7 7
-11 15 -8 7 3 13 1 13 -4 0 -6 -4 -10 -10 -10 -5 0 -10 -13 -10 -30 0 -16 4
-30 9 -30 10 0 21 -49 22 -105 1 -22 6 -45 11 -51 5 -7 8 -16 6 -20 -1 -5 3
-19 10 -31 8 -15 9 -23 2 -23 -5 0 -10 5 -10 12 0 6 -3 9 -6 6 -3 -4 2 -17 10
-30 9 -14 14 -27 11 -30 -3 -3 1 -34 9 -69 8 -35 18 -95 22 -134 3 -38 10 -75
15 -81 5 -7 9 -16 8 -20 -6 -24 55 -225 107 -354 8 -19 16 -44 18 -55 2 -12
14 -39 26 -60 12 -22 22 -55 22 -74 0 -22 3 -29 8 -20 7 11 10 10 14 -4 4 -9
9 -25 13 -34 4 -10 7 -25 8 -33 1 -9 11 -34 22 -55 11 -22 35 -70 52 -106 33
-69 68 -122 57 -86 -4 11 -2 16 5 12 5 -4 7 -15 4 -25 -3 -11 2 -34 11 -52 24
-46 87 -142 97 -146 4 -2 5 -8 1 -13 -7 -12 47 -83 95 -126 20 -18 31 -32 24
-33 -6 0 -14 6 -16 13 -4 9 -6 9 -6 0 -1 -6 4 -15 9 -18 6 -3 10 -12 10 -18
-1 -7 -12 2 -26 18 -16 18 -22 22 -15 9 11 -24 41 -51 41 -38 0 5 5 2 11 -6 8
-11 9 -9 3 10 -8 30 -7 29 40 -33 41 -54 49 -86 11 -45 -14 15 -25 32 -25 38
0 5 -4 10 -10 10 -15 0 -12 -7 21 -45 17 -19 35 -32 40 -29 5 3 9 0 9 -5 0 -6
5 -11 10 -11 7 0 7 7 0 21 -7 11 -9 23 -6 27 3 3 6 0 6 -6 0 -12 131 -168 205
-244 26 -27 53 -48 61 -48 8 0 14 -7 14 -15 0 -8 7 -15 15 -15 8 0 14 -3 14
-7 -4 -24 2 -53 12 -53 5 0 7 5 4 11 -4 6 2 5 14 -3 25 -16 28 -29 4 -22 -10
2 -8 -1 4 -7 12 -6 25 -19 28 -28 5 -13 4 -14 -6 -4 -15 15 -29 17 -29 4 0 -5
11 -12 25 -15 13 -3 39 -19 57 -34 38 -33 79 -52 59 -28 -9 11 -9 15 0 18 9 3
9 9 0 27 -18 34 -5 38 27 9 15 -14 40 -33 55 -43 15 -10 26 -24 23 -30 -2 -7
6 -23 20 -36 13 -12 24 -28 24 -35 0 -7 5 -16 12 -20 8 -5 9 -2 5 9 -11 30 11
18 33 -18 12 -20 34 -42 49 -50 27 -14 117 -85 108 -85 -2 0 -21 7 -41 15 -21
9 -36 11 -36 5 0 -5 -8 -10 -17 -10 -12 0 -14 3 -6 8 7 4 9 13 4 21 -6 9 -11
10 -15 2 -8 -13 -66 13 -66 29 0 5 -15 17 -32 25 -24 12 -28 12 -15 2 26 -21
21 -27 -13 -16 -17 6 -30 14 -30 19 0 9 -33 21 -68 25 -13 1 -40 18 -60 38
-21 21 -43 37 -48 37 -6 0 -19 9 -29 20 -10 11 -22 20 -27 20 -11 0 -10 -32 3
-50 8 -12 9 -10 4 7 -6 23 -6 23 24 5 33 -18 44 -40 12 -23 -16 9 -18 8 -14
-10 3 -11 8 -17 11 -15 3 3 32 -19 65 -50 32 -30 84 -73 113 -96 30 -22 52
-44 49 -48 -3 -5 0 -12 6 -16 8 -5 9 -3 4 6 -5 8 -3 11 6 8 8 -3 13 -11 11
-17 -1 -7 2 -9 8 -6 6 4 19 0 28 -8 9 -8 43 -28 74 -45 32 -17 70 -40 84 -51
15 -12 33 -21 40 -21 8 0 14 -4 14 -9 0 -13 112 -66 135 -63 11 1 14 -1 7 -4
-8 -4 29 -25 85 -50 54 -24 106 -48 115 -54 10 -5 25 -7 35 -4 14 5 15 4 4 -4
-10 -7 -4 -13 25 -22 22 -7 44 -17 51 -22 21 -17 137 -48 179 -48 22 0 44 -3
47 -6 4 -4 21 -9 39 -11 60 -7 203 -35 263 -51 22 -6 64 -13 93 -16 29 -3 56
-7 60 -10 4 -2 42 -7 86 -10 43 -3 81 -8 85 -10 3 -3 42 -7 86 -11 44 -3 105
-8 135 -10 30 -3 77 -9 103 -15 60 -12 204 -13 209 -1 3 10 21 14 58 12 18 -1
21 -4 11 -10 -7 -5 -22 -6 -32 -4 -11 3 -19 0 -19 -6 0 -7 4 -9 10 -6 6 3 10
1 10 -5 0 -6 11 -4 25 6 14 9 34 14 45 11 11 -3 20 -1 20 3 0 5 -18 11 -40 15
-22 4 -40 10 -40 15 0 15 74 26 115 17 56 -12 477 11 504 27 9 6 73 15 148 21
23 2 47 6 52 9 5 4 11 1 13 -6 5 -15 113 -14 131 1 7 5 43 15 80 22 37 7 67
16 67 19 0 4 20 13 45 20 25 7 45 17 45 21 0 11 -3 11 -37 -2 -21 -8 -25 -7
-16 1 9 10 28 14 86 19 4 1 7 8 7 16 0 11 8 15 23 13 31 -4 112 32 127 57 10
16 10 18 -1 8 -7 -7 -21 -13 -31 -13 -10 0 -27 -9 -38 -20 -10 -10 -22 -15
-25 -11 -6 11 -42 3 -70 -15 -11 -7 -40 -18 -64 -24 -35 -9 -46 -9 -53 2 -8
10 -9 9 -4 -4 3 -10 1 -20 -4 -23 -6 -4 -10 -2 -10 4 0 5 -13 3 -28 -5 -16 -7
-44 -16 -63 -19 l-34 -6 35 17 c19 9 76 36 125 60 50 24 113 50 142 59 28 9
54 23 57 31 3 8 11 14 18 14 9 0 8 -3 -2 -10 -10 -7 -11 -10 -2 -10 7 0 15 7
18 14 3 8 36 25 72 37 37 12 72 26 77 33 6 6 17 12 25 14 8 2 36 14 63 27 26
13 47 19 47 13 0 -7 16 -8 46 -3 52 7 94 24 94 36 0 9 103 59 120 59 5 0 13 8
18 17 6 9 24 18 42 19 17 1 40 10 50 19 10 9 24 18 32 19 18 3 58 29 58 38 0
4 -10 9 -22 11 -20 4 -20 4 4 6 15 0 30 5 33 11 3 6 13 10 22 10 14 0 13 -3
-3 -21 -19 -22 -19 -22 6 -14 32 10 72 36 66 43 -3 3 -12 -1 -21 -8 -9 -7 -18
-10 -22 -7 -6 7 57 37 77 37 5 0 10 7 10 15 0 8 4 15 10 15 5 0 27 16 49 35
21 19 43 35 49 35 6 0 12 4 14 9 2 5 12 11 23 13 11 1 28 13 38 25 10 13 25
23 32 23 17 0 165 144 165 160 0 7 -24 -12 -52 -42 -29 -31 -64 -59 -78 -63
-24 -7 -24 -7 -5 9 11 8 16 16 12 16 -15 0 -67 -31 -67 -40 0 -6 -6 -10 -14
-10 -8 0 -17 -8 -20 -17 -6 -15 -8 -15 -17 -3 -8 11 -9 9 -4 -9 5 -17 4 -22
-6 -19 -8 3 -32 -4 -54 -15 -22 -12 -43 -20 -47 -19 -5 1 -8 -3 -8 -8 0 -6 -5
-10 -11 -10 -13 0 -60 -36 -59 -45 1 -6 -66 -55 -76 -55 -3 0 -28 -17 -57 -39
-43 -32 -79 -51 -107 -56 -3 0 -20 -9 -38 -19 -25 -13 -40 -15 -60 -8 -27 9
-27 9 -4 16 12 4 22 14 22 22 0 8 4 14 9 14 5 0 7 -10 5 -23 -3 -15 -1 -13 7
6 9 23 16 28 36 24 17 -3 21 -1 14 6 -7 7 3 18 32 37 23 14 67 45 97 68 30 23
60 42 65 42 6 0 22 10 37 23 15 13 47 36 72 52 25 16 43 32 40 37 -3 4 1 8 9
8 7 0 26 13 42 30 16 16 33 30 38 30 28 0 167 114 167 137 0 7 5 13 11 13 18
0 60 50 53 62 -4 6 -2 8 4 4 6 -3 13 2 17 13 3 11 19 22 35 26 17 4 30 10 30
14 0 4 7 16 16 27 14 18 15 18 4 -3 -6 -13 -7 -23 -3 -23 12 0 58 72 55 86 -1
7 6 12 18 11 20 -1 29 -17 10 -17 -5 0 -10 -4 -10 -9 0 -5 9 -7 20 -4 11 3 20
11 20 18 0 7 10 16 23 19 30 9 152 176 128 176 -6 0 -15 -9 -21 -20 -6 -11
-18 -20 -27 -20 -10 0 6 22 43 58 32 31 65 57 73 57 8 0 23 17 34 38 11 21 26
41 33 44 19 7 18 23 -1 23 -8 0 -15 -7 -15 -17 0 -9 -3 -13 -7 -10 -3 4 -12
-1 -19 -11 -7 -9 -14 -12 -14 -6 0 5 9 20 20 32 11 12 20 26 20 31 0 5 5 13
12 17 8 5 9 2 5 -9 -12 -31 10 -18 37 22 15 21 36 41 47 44 11 3 19 14 19 25
0 11 12 30 26 41 15 12 24 21 20 21 -3 0 5 18 19 40 14 22 25 42 25 45 0 17
54 84 64 78 6 -4 5 1 -3 10 -7 9 -9 17 -4 17 10 0 48 59 48 76 0 6 6 19 14 28
11 12 11 16 1 16 -9 0 -7 7 5 20 10 11 15 20 10 20 -4 0 1 8 12 18 10 9 13 13
6 8 -19 -13 -16 2 7 31 30 39 113 260 100 268 -8 5 5 59 20 80 4 6 6 21 5 35
-2 25 20 187 32 225 3 11 2 17 -2 13 -3 -3 -13 -28 -20 -55 l-13 -48 3 60 c2
33 8 59 14 58 10 -3 31 49 31 77 0 10 8 24 17 31 11 10 14 10 9 2 -10 -19 19
-16 34 2 8 9 8 15 2 15 -6 0 -13 -6 -16 -12 -3 -7 -4 -2 -3 12 1 14 6 28 10
31 5 4 13 44 19 90 5 46 14 89 20 94 6 7 8 -3 4 -30 -4 -29 -3 -33 2 -15 5 14
12 45 15 70 6 45 6 45 -8 15 -17 -37 -18 -23 -1 85 14 97 11 231 -7 242 -9 6
-9 10 2 17 11 7 11 10 0 15 -8 3 -10 8 -4 11 6 3 9 34 7 72 -2 38 -3 80 -3 95
0 15 -4 30 -9 33 -6 4 -10 -15 -10 -44 0 -28 4 -51 9 -51 11 0 1 -50 -15 -75
-19 -27 -18 -44 1 -19 15 19 15 19 8 -1 -3 -11 -10 -25 -14 -31 -5 -6 -6 -14
-2 -18 4 -4 2 -10 -4 -14 -7 -4 -13 -35 -15 -70 -2 -45 -6 -62 -16 -62 -10 0
-13 -10 -10 -35 2 -19 0 -35 -5 -35 -4 0 -6 -4 -3 -8 3 -5 1 -22 -4 -38 -6
-19 -7 18 -3 106 8 169 7 395 -2 410 -4 6 -9 62 -11 123 -3 62 -7 123 -11 137
-3 14 -6 28 -5 31 0 3 -6 41 -14 85 -8 43 -18 102 -23 130 -5 28 -16 67 -24
87 -9 19 -13 38 -10 41 3 3 2 11 -4 18 -5 7 -10 28 -11 47 -2 18 -7 41 -13 50
-8 13 -9 11 -3 -8 4 -16 3 -21 -5 -17 -6 4 -11 19 -12 34 0 15 -3 21 -6 13 -3
-8 -13 6 -24 35 -11 27 -17 55 -14 62 2 6 -7 33 -20 59 -31 57 -31 63 -3 32
22 -25 22 -23 0 30 -3 9 -1 12 6 7 7 -4 12 -3 12 3 0 5 -5 11 -11 13 -6 2 -13
16 -14 32 -6 48 -26 130 -42 164 -8 18 -16 43 -17 55 -1 12 -7 31 -14 42 -10
17 -11 16 -6 -12 4 -19 2 -39 -5 -47 -8 -9 -8 -21 -2 -39 5 -14 7 -28 3 -32
-4 -4 1 -13 11 -20 11 -8 14 -16 8 -19 -5 -4 -15 4 -22 16 -7 12 -18 29 -26
36 -7 7 -13 22 -13 31 0 10 -8 29 -18 42 -10 13 -31 54 -47 92 -18 40 -35 67
-45 67 -12 0 -13 2 -1 9 11 7 11 13 -4 32 l-17 24 7 -25 c5 -18 4 -22 -4 -15
-6 6 -12 24 -13 40 -3 36 -19 71 -33 70 -5 0 -11 9 -13 20 -2 11 -12 29 -21
40 -10 11 -26 34 -36 50 -32 52 -191 245 -212 258 -7 4 -19 22 -27 40 -8 18
-25 45 -39 60 -71 79 -117 125 -131 130 -9 4 -16 11 -16 17 0 6 6 8 13 5 6 -3
3 0 -8 7 -10 7 -36 29 -56 48 -137 132 -226 203 -242 193 -6 -3 -7 -2 -4 4 4
5 -5 16 -18 23 -14 7 -25 17 -25 22 0 4 -5 8 -11 8 -7 0 -20 10 -30 22 -11 11
-19 18 -19 15 0 -3 -12 5 -26 18 -14 13 -32 21 -39 19 -7 -3 -16 -1 -20 5 -3
6 0 11 7 11 7 1 0 8 -17 17 -16 10 -33 16 -37 15 -5 -1 -8 2 -8 7 0 15 -79 49
-103 45 -18 -4 -19 -3 -4 4 15 6 8 14 -43 42 -34 19 -72 44 -84 55 -11 11 -25
19 -29 17 -5 -1 -19 6 -33 17 -14 11 -38 22 -54 26 -15 3 -31 12 -33 20 -3 7
-19 16 -36 20 -17 4 -29 10 -27 14 3 4 -3 7 -12 8 -18 1 -77 20 -102 34 -64
34 -119 58 -140 61 -14 2 -27 6 -30 9 -15 19 -132 78 -178 90 -28 7 -47 16
-41 19 12 8 -117 52 -206 71 -33 7 -64 16 -70 21 -5 4 -21 8 -35 8 -14 0 -62
9 -106 19 -125 30 -286 59 -346 63 -16 2 -28 7 -28 13 0 5 -4 4 -9 -3 -6 -10
-23 -11 -77 -4 -83 12 -467 13 -579 2z m755 -110 c0 -5 -5 -10 -11 -10 -5 0
-7 5 -4 10 3 6 8 10 11 10 2 0 4 -4 4 -10z m-1800 -90 c-8 -5 -19 -10 -25 -10
-5 0 -3 5 5 10 8 5 20 10 25 10 6 0 3 -5 -5 -10z m2350 -50 c0 -5 -4 -10 -10
-10 -5 0 -10 5 -10 10 0 6 5 10 10 10 6 0 10 -4 10 -10z m-1070 -40 c0 -5 -5
-10 -11 -10 -5 0 -7 5 -4 10 3 6 8 10 11 10 2 0 4 -4 4 -10z m1400 -40 c0 -5
-2 -10 -4 -10 -3 0 -8 5 -11 10 -3 6 -1 10 4 10 6 0 11 -4 11 -10z m-1012 -17
c-21 -2 -55 -2 -75 0 -21 2 -4 4 37 4 41 0 58 -2 38 -4z m439 -39 c-3 -3 -12
-4 -19 -1 -8 3 -5 6 6 6 11 1 17 -2 13 -5z m928 -74 c3 -5 1 -10 -4 -10 -6 0
-11 5 -11 10 0 6 2 10 4 10 3 0 8 -4 11 -10z m-1275 -10 c0 -5 -2 -10 -4 -10
-3 0 -8 5 -11 10 -3 6 -1 10 4 10 6 0 11 -4 11 -10z m-2365 -44 c-11 -8 -24
-12 -29 -8 -5 3 -1 9 10 13 31 12 39 10 19 -5z m3755 -46 c0 -5 -2 -10 -4 -10
-3 0 -8 5 -11 10 -3 6 -1 10 4 10 6 0 11 -4 11 -10z m-2970 -24 c0 -8 -63 -36
-79 -36 -9 0 2 9 24 19 41 20 55 24 55 17z m2825 -14 c-3 -3 -11 0 -18 7 -9
10 -8 11 6 5 10 -3 15 -9 12 -12z m-2968 -38 c-3 -3 -12 -4 -19 -1 -8 3 -5 6
6 6 11 1 17 -2 13 -5z m3151 -46 c12 -6 22 -15 22 -20 0 -12 -104 49 -109 64
-2 6 11 2 30 -11 19 -12 44 -27 57 -33z m-3254 7 c-10 -8 -23 -14 -29 -14 -5
0 -1 6 9 14 11 8 24 15 30 15 5 0 1 -7 -10 -15z m-874 -15 c0 -5 -5 -10 -11
-10 -5 0 -7 5 -4 10 3 6 8 10 11 10 2 0 4 -4 4 -10z m4221 -51 c53 -38 75 -60
35 -35 -16 10 -44 27 -63 38 -18 11 -33 22 -33 24 0 11 21 1 61 -27z m96 -75
c-3 -3 -12 -4 -19 -1 -8 3 -5 6 6 6 11 1 17 -2 13 -5z m38 -24 c7 0 18 -7 25
-15 16 -20 6 -19 -25 1 -14 9 -24 24 -24 33 1 14 2 13 6 -1 2 -10 10 -18 18
-18z m160 10 c3 -5 1 -10 -4 -10 -6 0 -11 5 -11 10 0 6 2 10 4 10 3 0 8 -4 11
-10z m-4035 -50 c0 -5 -5 -10 -11 -10 -5 0 -7 5 -4 10 3 6 8 10 11 10 2 0 4
-4 4 -10z m3950 -10 c0 -5 -2 -10 -4 -10 -3 0 -8 5 -11 10 -3 6 -1 10 4 10 6
0 11 -4 11 -10z m90 -65 c13 -14 29 -25 35 -25 6 0 26 -16 45 -35 19 -19 41
-35 47 -35 7 0 44 -31 82 -68 38 -37 93 -90 123 -118 29 -28 73 -75 98 -105
25 -30 57 -66 73 -81 15 -14 27 -29 27 -32 0 -3 11 -16 25 -30 14 -14 25 -32
25 -41 0 -8 4 -15 9 -15 4 0 27 -27 49 -60 49 -71 41 -82 -9 -13 -18 26 -40
55 -49 64 -8 10 -40 46 -70 80 -135 154 -337 359 -345 351 -5 -5 -9 15 -6 31
1 5 -2 6 -7 3 -5 -3 -28 13 -53 36 -24 22 -59 51 -79 63 -38 24 -68 55 -53 55
5 0 20 -11 33 -25z m230 4 c0 -6 -4 -7 -10 -4 -5 3 -10 11 -10 16 0 6 5 7 10
4 6 -3 10 -11 10 -16z m-1925 -4 c239 -6 439 -23 571 -50 398 -83 698 -281
861 -570 53 -95 97 -203 122 -300 45 -179 46 -223 45 -1631 -2 -1451 -2 -1437
-60 -1640 -159 -554 -561 -870 -1224 -960 -220 -30 -752 -38 -1250 -19 -348
14 -610 58 -824 141 -423 163 -670 498 -726 984 -18 147 -26 2547 -10 2780 18
264 55 414 146 590 58 113 123 197 233 303 185 179 379 276 648 326 206 38
269 44 558 51 284 6 448 6 910 -5z m1950 -15 c3 -5 1 -10 -4 -10 -6 0 -11 5
-11 10 0 6 2 10 4 10 3 0 8 -4 11 -10z m-5255 -170 c-6 -11 -16 -20 -22 -20
-6 0 -3 9 7 20 10 11 20 20 22 20 2 0 -1 -9 -7 -20z m5476 -52 c58 -62 95
-110 49 -63 -22 22 -55 55 -74 73 -19 17 -30 32 -25 32 6 0 28 -19 50 -42z
m-5670 -182 c-8 -14 -25 -42 -37 -63 -26 -47 -40 -65 -46 -59 -7 7 80 146 91
146 4 0 1 -11 -8 -24z m-126 -200 c0 -3 -4 -8 -10 -11 -5 -3 -10 -1 -10 4 0 6
5 11 10 11 6 0 10 -2 10 -4z m508 -66 c-7 -10 -14 -17 -17 -15 -4 4 18 35 25
35 2 0 -1 -9 -8 -20z m-84 -129 c-26 -39 -49 -69 -52 -66 -3 2 13 30 34 61 54
78 58 84 62 79 2 -1 -18 -35 -44 -74z m5811 -62 c11 -17 -1 -21 -15 -4 -8 9
-8 15 -2 15 6 0 14 -5 17 -11z m-5880 -78 c-3 -6 -11 -11 -16 -11 -5 0 -4 6 3
14 14 16 24 13 13 -3z m-49 -79 c-18 -16 -18 -16 -6 6 6 13 14 21 18 18 3 -4
-2 -14 -12 -24z m6071 -64 c-3 -8 -6 -5 -6 6 -1 11 2 17 5 13 3 -3 4 -12 1
-19z m97 -58 c-6 -6 -10 -4 -10 8 0 9 -3 28 -7 42 -5 18 -3 17 10 -8 11 -21
13 -36 7 -42z m-16 -85 c-3 -3 -9 2 -12 12 -6 14 -5 15 5 6 7 -7 10 -15 7 -18z
m22 -35 c6 -11 8 -20 6 -20 -3 0 -10 9 -16 20 -6 11 -8 20 -6 20 3 0 10 -9 16
-20z m17 -52 c-3 -8 -6 -5 -6 6 -1 11 2 17 5 13 3 -3 4 -12 1 -19z m-6347
-102 c0 -2 -8 -10 -17 -17 -16 -13 -17 -12 -4 4 13 16 21 21 21 13z m6395
-146 c3 -5 1 -10 -4 -10 -6 0 -11 5 -11 10 0 6 2 10 4 10 3 0 8 -4 11 -10z
m-295 -80 c0 -5 -5 -10 -11 -10 -5 0 -7 5 -4 10 3 6 8 10 11 10 2 0 4 -4 4
-10z m407 -192 c-3 -8 -6 -5 -6 6 -1 11 2 17 5 13 3 -3 4 -12 1 -19z m-167
-168 c0 -5 -5 -10 -11 -10 -5 0 -7 5 -4 10 3 6 8 10 11 10 2 0 4 -4 4 -10z m9
-92 c0 -10 -3 -18 -8 -18 -6 0 -9 8 -9 18 0 9 0 22 -2 27 -1 6 -1 19 0 30 2
15 4 12 10 -10 4 -16 8 -38 9 -47z m-6913 -16 c-11 -10 -14 3 -8 33 l7 30 3
-28 c2 -16 1 -31 -2 -35z m-15 -63 c-6 -16 -10 -18 -10 -7 -1 22 12 55 16 42
2 -6 -1 -22 -6 -35z m6926 19 c-3 -8 -6 -5 -6 6 -1 11 2 17 5 13 3 -3 4 -12 1
-19z m-6904 -139 c-5 -5 -6 11 -3 34 4 41 5 41 8 8 2 -18 0 -37 -5 -42z m7113
41 c-1 -39 -16 -39 -16 0 0 17 4 30 9 30 4 0 8 -13 7 -30z m21 -22 c-3 -7 -5
-2 -5 12 0 14 2 19 5 13 2 -7 2 -19 0 -25z m-34 -33 c-3 -9 -8 -14 -10 -11 -3
3 -2 9 2 15 9 16 15 13 8 -4z m-7136 -57 c-2 -13 -4 -3 -4 22 0 25 2 35 4 23
2 -13 2 -33 0 -45z m153 -48 c0 -5 -4 -10 -10 -10 -5 0 -10 5 -10 10 0 6 5 10
10 10 6 0 10 -4 10 -10z m-200 -47 c0 -5 -5 -15 -10 -23 -8 -12 -10 -11 -10 8
0 12 5 22 10 22 6 0 10 -3 10 -7z m6987 -15 c-3 -8 -6 -5 -6 6 -1 11 2 17 5
13 3 -3 4 -12 1 -19z m-29 -140 c16 5 16 5 0 -11 -22 -23 -28 -21 -27 6 0 12
3 17 5 10 3 -7 13 -9 22 -5z m339 -25 c-3 -10 -5 -4 -5 12 0 17 2 24 5 18 2
-7 2 -21 0 -30z m-349 -54 c-1 -23 -4 -35 -9 -27 -7 12 -1 68 7 68 2 0 3 -18
2 -41z m362 27 c0 -3 -4 -8 -10 -11 -5 -3 -10 -1 -10 4 0 6 5 11 10 11 6 0 10
-2 10 -4z m-373 -138 c-3 -7 -5 -2 -5 12 0 14 2 19 5 13 2 -7 2 -19 0 -25z
m28 11 c-6 -33 -15 -36 -15 -6 0 15 4 27 9 27 6 0 8 -10 6 -21z m-38 -61 c-3
-8 -6 -5 -6 6 -1 11 2 17 5 13 3 -3 4 -12 1 -19z m300 -30 c-3 -8 -6 -5 -6 6
-1 11 2 17 5 13 3 -3 4 -12 1 -19z m-300 -48 c-4 -16 -3 -30 2 -30 4 0 6 -12
3 -26 -3 -16 -9 -23 -18 -20 -8 3 -14 -1 -14 -10 0 -8 5 -12 10 -9 6 3 10 -4
10 -17 -1 -22 -1 -22 -15 -4 -20 27 -20 70 0 62 8 -3 15 -1 15 4 0 6 -4 10 -9
10 -6 0 -9 9 -8 20 1 11 5 20 9 20 4 0 8 7 8 15 0 8 3 15 6 15 4 0 4 -13 1
-30z m340 -42 c-3 -8 -6 -5 -6 6 -1 11 2 17 5 13 3 -3 4 -12 1 -19z m-7117
-48 c0 -5 -2 -10 -4 -10 -3 0 -8 5 -11 10 -3 6 -1 10 4 10 6 0 11 -4 11 -10z
m7091 -43 c-10 -9 -11 -8 -5 6 3 10 9 15 12 12 3 -3 0 -11 -7 -18z m-333 -38
c-2 -6 -7 -10 -12 -9 -5 1 -13 -4 -17 -12 -7 -10 -9 -9 -9 4 0 9 8 19 18 21 9
3 19 5 20 6 2 0 2 -4 0 -10z m-13 -63 c-16 -39 -32 -103 -34 -144 -1 -7 -4
-11 -8 -9 -5 3 -9 -6 -9 -20 -2 -32 -12 -41 -25 -23 -8 11 -9 8 -4 -13 6 -29
-8 -57 -29 -57 -8 0 -8 2 0 8 6 4 14 23 17 42 3 19 8 53 12 75 12 76 39 157
46 138 6 -15 8 -14 19 10 19 39 32 34 15 -7z m282 -28 c-3 -7 -5 -2 -5 12 0
14 2 19 5 13 2 -7 2 -19 0 -25z m-7036 -31 c-10 -9 -11 -8 -5 6 3 10 9 15 12
12 3 -3 0 -11 -7 -18z m6646 -249 c-3 -7 -5 -2 -5 12 0 14 2 19 5 13 2 -7 2
-19 0 -25z m357 -215 c-8 -21 -24 -56 -34 -78 -11 -22 -28 -65 -39 -95 -11
-30 -20 -47 -20 -37 -1 18 45 142 59 162 4 6 10 23 14 40 6 24 21 44 33 45 1
0 -5 -17 -13 -37z m-479 -172 c-4 -17 -10 -33 -15 -36 -4 -3 -3 13 2 35 12 47
23 47 13 1z m365 -1 c0 -5 -5 -10 -11 -10 -5 0 -7 5 -4 10 3 6 8 10 11 10 2 0
4 -4 4 -10z m3 -70 c-3 -10 -11 -24 -19 -31 -12 -9 -12 -6 -3 20 12 34 30 43
22 11z m-6703 -10 c0 -5 -5 -10 -11 -10 -5 0 -7 5 -4 10 3 6 8 10 11 10 2 0 4
-4 4 -10z m6196 -171 c-15 -22 -30 -38 -33 -35 -3 3 2 12 11 21 9 9 16 22 16
29 0 14 22 38 28 31 3 -3 -7 -23 -22 -46z m-6082 -175 c3 -8 2 -12 -4 -9 -6 3
-10 10 -10 16 0 14 7 11 14 -7z m317 -136 c6 -12 6 -18 -1 -18 -5 0 -10 6 -10
14 0 7 -7 19 -15 26 -8 7 -15 18 -15 24 1 11 24 -15 41 -46z m5869 -148 c0 -5
-5 -10 -11 -10 -5 0 -7 5 -4 10 3 6 8 10 11 10 2 0 4 -4 4 -10z m21 -17 c-12
-20 -14 -14 -5 12 4 9 9 14 11 11 3 -2 0 -13 -6 -23z m-5851 -224 c0 -6 -4 -7
-10 -4 -5 3 -10 11 -10 16 0 6 5 7 10 4 6 -3 10 -11 10 -16z m5570 17 c0 -3
-4 -8 -10 -11 -5 -3 -10 -1 -10 4 0 6 5 11 10 11 6 0 10 -2 10 -4z m-49 -54
c-23 -32 -51 -58 -51 -47 0 10 53 73 63 74 5 1 -1 -12 -12 -27z m-4321 -12 c0
-5 -4 -10 -10 -10 -5 0 -10 5 -10 10 0 6 5 10 10 10 6 0 10 -4 10 -10z m-1043
-72 c-3 -8 -6 -5 -6 6 -1 11 2 17 5 13 3 -3 4 -12 1 -19z m5308 12 c-3 -5 -11
-10 -16 -10 -6 0 -7 5 -4 10 3 6 11 10 16 10 6 0 7 -4 4 -10z m25 -9 c-5 -11
-15 -23 -22 -27 -7 -5 -8 -2 -3 7 21 37 44 55 25 20z m-5260 -141 c0 -5 -2
-10 -4 -10 -3 0 -8 5 -11 10 -3 6 -1 10 4 10 6 0 11 -4 11 -10z m460 -299 c0
-5 -9 -7 -20 -4 -11 3 -20 7 -20 9 0 2 9 4 20 4 11 0 20 -4 20 -9z m-40 -41
c0 -5 -2 -10 -4 -10 -3 0 -8 5 -11 10 -3 6 -1 10 4 10 6 0 11 -4 11 -10z
m-194 -57 c-7 -7 -26 7 -26 19 0 6 6 6 15 -2 9 -7 13 -15 11 -17z m299 -3 c3
-5 1 -10 -4 -10 -6 0 -11 5 -11 10 0 6 2 10 4 10 3 0 8 -4 11 -10z m-90 -105
c22 -13 34 -25 26 -25 -14 0 -81 38 -81 46 0 9 17 3 55 -21z m1452 -41 c-3 -3
-12 -4 -19 -1 -8 3 -5 6 6 6 11 1 17 -2 13 -5z m2533 -29 c-7 -8 -17 -15 -22
-15 -6 0 -5 7 2 15 7 8 17 15 22 15 6 0 5 -7 -2 -15z m-3725 -5 c3 -6 -1 -7
-9 -4 -18 7 -21 14 -7 14 6 0 13 -4 16 -10z m3665 1 c0 -5 -7 -11 -14 -14 -10
-4 -13 -1 -9 9 6 15 23 19 23 5z m-50 -55 c0 -2 -12 -12 -27 -21 l-28 -18 19
21 c17 20 36 29 36 18z m-3490 -10 c0 -3 -4 -8 -10 -11 -5 -3 -10 -1 -10 4 0
6 5 11 10 11 6 0 10 -2 10 -4z m3505 -26 c-3 -5 -11 -10 -16 -10 -6 0 -7 5 -4
10 3 6 11 10 16 10 6 0 7 -4 4 -10z m-3343 -20 c29 -11 62 -24 73 -29 11 -5
45 -18 75 -29 30 -11 74 -27 98 -36 33 -13 231 -65 342 -90 122 -29 169 -63
67 -50 -29 4 -62 7 -74 7 -13 -1 -23 3 -23 8 0 5 -10 7 -23 4 -15 -4 -28 -1
-36 8 -6 9 -21 13 -32 10 -11 -3 -30 -1 -42 5 -12 6 -41 16 -64 22 -48 12 -59
23 -15 15 l27 -5 -29 11 c-22 9 -30 9 -36 -1 -4 -7 -13 -9 -20 -5 -9 6 -9 10
1 17 10 7 4 8 -18 6 -18 -3 -30 -1 -27 4 3 4 -7 8 -23 8 -35 0 -69 19 -38 21
25 1 -28 18 -65 21 -14 1 -32 7 -41 15 -8 7 -24 14 -35 16 -20 3 -114 54 -114
62 0 9 20 5 72 -15z m2495 14 c-3 -3 -12 -4 -19 -1 -8 3 -5 6 6 6 11 1 17 -2
13 -5z m-2712 -64 c3 -5 -1 -10 -10 -10 -9 0 -13 5 -10 10 3 6 8 10 10 10 2 0
7 -4 10 -10z m19 -30 c-19 -7 -54 -2 -54 7 0 3 9 3 20 0 11 -3 23 -1 26 4 3 5
10 6 17 2 7 -4 4 -9 -9 -13z m1133 -26 c-3 -3 -12 -4 -19 -1 -8 3 -5 6 6 6 11
1 17 -2 13 -5z m663 -58 c0 -3 -4 -8 -10 -11 -5 -3 -10 -1 -10 4 0 6 5 11 10
11 6 0 10 -2 10 -4z m720 -6 c0 -5 -8 -10 -17 -10 -15 0 -16 2 -3 10 19 12 20
12 20 0z m-1566 -68 c2 -4 19 -9 37 -10 32 -3 47 -9 38 -15 -10 -7 -109 15
-104 24 7 11 22 12 29 1z m1021 -12 c-3 -5 -12 -10 -18 -10 -7 0 -6 4 3 10 19
12 23 12 15 0z m145 -6 c0 -2 -21 -4 -47 -4 -27 0 -43 4 -36 8 12 8 83 4 83
-4z m720 12 c0 -3 -4 -8 -10 -11 -5 -3 -10 -1 -10 4 0 6 5 11 10 11 6 0 10 -2
10 -4z m-825 -25 c-3 -6 -11 -11 -17 -11 -6 0 -6 6 2 15 14 17 26 13 15 -4z
m749 4 c-10 -8 -26 -14 -34 -14 -9 0 -4 6 10 14 33 19 49 19 24 0z m41 5 c3
-5 1 -10 -4 -10 -6 0 -11 5 -11 10 0 6 2 10 4 10 3 0 8 -4 11 -10z m-1598 -6
c-3 -3 -12 -4 -19 -1 -8 3 -5 6 6 6 11 1 17 -2 13 -5z m-42 -14 c3 -5 1 -10
-4 -10 -6 0 -11 5 -11 10 0 6 2 10 4 10 3 0 8 -4 11 -10z m1540 -10 c3 -5 -3
-10 -15 -10 -12 0 -18 5 -15 10 3 6 10 10 15 10 5 0 12 -4 15 -10z m-5 -70 c0
-5 -4 -10 -10 -10 -5 0 -10 5 -10 10 0 6 5 10 10 10 6 0 10 -4 10 -10z m37 4
c-3 -3 -12 -4 -19 -1 -8 3 -5 6 6 6 11 1 17 -2 13 -5z m-1284 -81 c-7 -2 -19
-2 -25 0 -7 3 -2 5 12 5 14 0 19 -2 13 -5z m274 -9 c-3 -3 -12 -4 -19 -1 -8 3
-5 6 6 6 11 1 17 -2 13 -5z m-147 -8 c0 -2 -7 -6 -15 -10 -8 -3 -15 -1 -15 4
0 6 7 10 15 10 8 0 15 -2 15 -4z m83 -13 c-7 -2 -19 -2 -25 0 -7 3 -2 5 12 5
14 0 19 -2 13 -5z"/>
<path d="M4595 7389 c-398 -16 -600 -68 -790 -204 -139 -99 -253 -259 -300
-420 -49 -169 -49 -173 -50 -1410 0 -1340 4 -1595 29 -1710 47 -217 165 -401
324 -508 133 -88 233 -128 412 -161 168 -31 340 -38 895 -37 605 0 816 12
1001 56 385 91 627 315 687 638 15 82 19 492 20 2257 1 743 -2 799 -53 942
-39 111 -85 183 -175 273 -180 180 -421 262 -835 283 -217 11 -900 12 -1165 1z
m1176 -420 c252 -31 382 -83 446 -178 37 -54 46 -106 40 -231 -10 -239 -126
-495 -252 -554 -31 -15 -38 -15 -63 -2 -16 8 -79 74 -141 145 -167 195 -273
259 -493 297 -105 18 -258 14 -345 -10 -204 -55 -303 -173 -291 -345 7 -89 36
-151 105 -219 102 -101 212 -163 548 -309 580 -252 784 -380 938 -588 96 -129
139 -227 162 -370 26 -156 14 -295 -39 -460 -83 -260 -343 -518 -658 -651
-224 -94 -407 -132 -674 -141 -251 -8 -465 14 -694 73 -266 68 -416 171 -498
340 -36 77 -37 82 -37 189 0 121 16 174 86 292 44 74 175 208 222 228 78 32
88 28 232 -117 243 -246 462 -369 739 -414 100 -16 112 -16 209 -1 173 29 310
112 361 222 41 85 36 217 -11 308 -67 133 -288 287 -648 450 -577 262 -815
426 -927 643 -71 135 -92 234 -92 419 1 267 66 443 222 608 200 211 502 338
897 376 61 6 126 13 145 15 59 7 421 -3 511 -15z m-1821 -139 c0 -5 -5 -10
-11 -10 -5 0 -7 5 -4 10 3 6 8 10 11 10 2 0 4 -4 4 -10z"/>
<path d="M3928 1783 c7 -3 16 -2 19 1 4 3 -2 6 -13 5 -11 0 -14 -3 -6 -6z"/>
<path d="M7050 8525 c0 -7 61 -37 66 -33 2 3 -12 12 -31 21 -19 9 -35 15 -35
12z"/>
<path d="M6470 8502 c0 -5 9 -12 21 -15 13 -3 19 -1 16 6 -5 15 -37 22 -37 9z"/>
<path d="M6440 8471 c24 -14 66 -25 55 -13 -5 5 -23 12 -40 16 -20 4 -25 3
-15 -3z"/>
<path d="M6575 8469 c-4 -6 -14 -8 -24 -4 -11 4 -13 3 -6 -4 12 -12 55 -3 55
10 0 12 -17 11 -25 -2z"/>
<path d="M6610 8460 c0 -6 7 -13 15 -17 24 -9 27 1 5 15 -13 8 -20 8 -20 2z"/>
<path d="M6779 8369 c18 -11 35 -18 38 -15 5 5 -50 36 -64 36 -4 0 7 -9 26
-21z"/>
<path d="M6852 8344 c10 -10 20 -15 24 -12 3 4 -5 12 -18 18 -22 12 -22 12 -6
-6z"/>
<path d="M6900 8310 c8 -6 24 -15 35 -21 16 -8 15 -6 -4 10 -13 12 -28 21 -35
21 -6 0 -4 -5 4 -10z"/>
<path d="M6960 8265 c0 -2 10 -10 23 -16 20 -11 21 -11 8 4 -13 16 -31 23 -31
12z"/>
<path d="M7152 8185 c20 -14 41 -25 45 -25 5 0 17 -15 28 -32 24 -43 53 -72
153 -152 45 -37 87 -64 92 -61 6 3 7 -1 4 -9 -3 -9 -2 -16 3 -16 5 0 20 -10
33 -22 14 -13 27 -22 30 -21 11 5 50 -10 50 -18 0 -6 -9 -5 -21 1 -11 7 -23 9
-26 6 -3 -3 6 -11 21 -17 14 -7 26 -16 26 -21 0 -4 6 -8 13 -9 6 0 27 -18 45
-41 17 -22 32 -37 32 -33 0 4 17 -10 38 -31 20 -22 48 -48 62 -59 l25 -20 -25
30 c-14 17 -31 36 -39 42 -8 7 -11 16 -7 20 5 5 36 -21 70 -57 81 -85 135
-131 71 -60 -74 82 -236 240 -246 240 -5 0 -9 6 -9 14 0 8 -21 32 -47 53 -27
21 -51 43 -55 48 -4 6 -13 10 -20 10 -7 1 -12 6 -11 13 2 6 -9 15 -23 18 -15
4 -21 10 -15 13 8 5 6 13 -5 27 -8 10 -13 13 -9 7 3 -8 0 -13 -8 -13 -8 0 -17
9 -20 21 -3 12 -10 18 -16 14 -6 -3 -16 -3 -22 1 -8 4 -7 9 2 15 10 6 5 9 -15
9 -20 0 -27 4 -23 14 4 9 1 13 -7 10 -7 -3 -21 5 -32 17 -11 13 -13 19 -4 14
8 -5 26 -9 40 -9 18 -1 25 -6 23 -20 -1 -13 2 -15 10 -7 16 16 -8 38 -48 45
-19 4 -35 11 -35 17 0 6 -4 8 -9 4 -5 -3 -12 -1 -16 5 -3 5 -11 10 -18 10 -6
0 -1 -7 11 -16 12 -8 22 -21 22 -29 0 -9 -10 -4 -27 13 -15 15 -27 30 -25 34
1 4 -10 10 -26 13 -15 4 -35 10 -44 16 -35 18 -32 8 4 -16z m539 -442 l24 -26
-32 23 c-34 25 -39 30 -25 30 5 0 19 -12 33 -27z"/>
<path d="M3175 8170 c-3 -6 1 -7 9 -4 18 7 21 14 7 14 -6 0 -13 -4 -16 -10z"/>
<path d="M7600 8112 c0 -12 19 -26 26 -19 2 2 -2 10 -11 17 -9 8 -15 8 -15 2z"/>
<path d="M7790 7595 c1 -12 39 -59 44 -54 2 2 -7 18 -20 34 -13 17 -24 26 -24
20z"/>
<path d="M7930 7520 c0 -14 25 -40 39 -40 6 0 11 -3 11 -7 0 -5 19 -28 41 -53
l41 -45 -38 50 c-50 65 -94 110 -94 95z"/>
<path d="M7940 7389 c0 -5 5 -7 10 -4 6 3 10 8 10 11 0 2 -4 4 -10 4 -5 0 -10
-5 -10 -11z"/>
<path d="M8070 7275 c0 -6 9 -18 19 -27 10 -9 24 -24 29 -34 6 -11 13 -16 16
-13 3 3 -10 23 -29 45 -19 21 -34 34 -35 29z"/>
<path d="M8240 7062 c6 -13 14 -21 18 -18 3 4 -2 14 -12 24 -18 16 -18 16 -6
-6z"/>
<path d="M8252 7021 c-11 -6 -10 -10 0 -19 11 -8 14 -7 14 9 0 10 0 19 -1 19
0 0 -6 -4 -13 -9z"/>
<path d="M8277 6983 c-4 -3 -7 -11 -7 -17 0 -6 5 -4 10 4 7 11 10 12 10 2 0
-25 32 -82 45 -82 7 0 16 -6 18 -12 3 -7 6 -3 6 10 1 14 -3 21 -10 17 -6 -4
-16 1 -24 11 -10 14 -10 21 -2 26 8 5 6 8 -6 8 -10 0 -16 4 -13 9 7 11 -18 33
-27 24z"/>
<path d="M8354 6848 c-4 -7 -3 -8 5 -4 9 6 10 0 6 -21 -5 -21 -4 -24 4 -13 9
12 11 11 11 -7 0 -13 5 -23 11 -23 6 0 8 9 5 20 -3 11 -9 29 -12 40 -6 22 -19
26 -30 8z"/>
<path d="M8480 6712 c0 -12 19 -26 26 -19 2 2 -2 10 -11 17 -9 8 -15 8 -15 2z"/>
<path d="M8390 6701 c0 -6 5 -13 10 -16 6 -3 10 1 10 9 0 9 -4 16 -10 16 -5 0
-10 -4 -10 -9z"/>
<path d="M1706 6545 c-8 -8 -19 -15 -24 -15 -9 0 -22 -46 -27 -93 -1 -10 -8
-23 -15 -30 -10 -9 -11 -9 -6 1 4 6 5 12 1 12 -6 0 -28 -49 -30 -65 0 -5 -3
-14 -6 -20 -12 -20 -85 -276 -93 -325 -3 -19 -15 -73 -26 -120 -26 -106 -32
-138 -33 -170 0 -14 -6 -67 -14 -117 -18 -125 -22 -193 -12 -193 5 0 3 -13 -5
-29 -18 -35 -31 -278 -16 -301 7 -10 10 28 10 118 0 111 2 132 15 132 8 0 15
8 16 18 0 14 2 14 9 -3 5 -11 9 -15 10 -10 6 47 21 187 22 217 2 20 6 34 10
32 5 -3 8 0 8 5 0 6 -4 11 -10 11 -5 0 -10 10 -9 23 0 21 1 21 8 2 6 -13 9 7
9 55 0 41 2 89 5 105 9 48 24 102 31 113 3 6 9 39 11 74 3 44 32 143 94 326
49 144 87 262 85 262 -1 0 -9 -7 -18 -15z m-26 -72 c-11 -17 -11 -17 -6 0 3
10 6 24 7 30 0 9 2 9 5 0 3 -7 0 -20 -6 -30z m-233 -985 c-3 -7 -5 -2 -5 12 0
14 2 19 5 13 2 -7 2 -19 0 -25z"/>
<path d="M8660 6395 c0 -5 5 -17 10 -25 5 -8 10 -10 10 -5 0 6 -5 17 -10 25
-5 8 -10 11 -10 5z"/>
<path d="M8525 6350 c-3 -5 -1 -10 4 -10 6 0 11 5 11 10 0 6 -2 10 -4 10 -3 0
-8 -4 -11 -10z"/>
<path d="M8667 6329 c4 -13 8 -18 11 -10 2 7 -1 18 -6 23 -8 8 -9 4 -5 -13z"/>
<path d="M8541 6314 c0 -11 3 -14 6 -6 3 7 2 16 -1 19 -3 4 -6 -2 -5 -13z"/>
<path d="M8530 6285 c0 -5 5 -17 10 -25 5 -8 10 -10 10 -5 0 6 -5 17 -10 25
-5 8 -10 11 -10 5z"/>
<path d="M8676 6208 c10 -36 26 -58 20 -28 -3 14 -6 31 -6 38 0 6 -5 12 -11
12 -6 0 -8 -9 -3 -22z"/>
<path d="M8705 6128 c22 -91 75 -374 75 -398 0 -30 13 -40 25 -20 3 6 1 10 -5
10 -6 0 -10 17 -9 43 1 23 -2 51 -6 61 -7 15 -5 18 6 12 8 -4 5 0 -5 8 -13 10
-15 16 -7 16 9 0 10 4 4 13 -6 6 -13 24 -17 39 -3 14 -9 34 -12 45 -5 14 -4
15 5 3 5 -8 14 -11 18 -6 4 4 0 13 -10 21 -15 11 -16 13 -2 19 8 3 14 13 14
23 -1 17 -2 17 -6 1 -2 -10 -10 -18 -18 -18 -9 0 -17 24 -25 70 -6 38 -16 73
-21 76 -6 3 -7 -4 -4 -18z"/>
<path d="M8736 6107 c3 -10 9 -15 12 -12 3 3 0 11 -7 18 -10 9 -11 8 -5 -6z"/>
<path d="M8798 5623 c6 -76 21 -103 16 -30 -1 31 -7 64 -12 73 -6 10 -7 -5 -4
-43z"/>
<path d="M8812 5490 c0 -14 2 -19 5 -12 2 6 2 18 0 25 -3 6 -5 1 -5 -13z"/>
<path d="M8750 5348 c0 -9 5 -20 10 -23 13 -8 13 5 0 25 -8 13 -10 13 -10 -2z"/>
<path d="M8768 5282 c-2 -17 0 -29 7 -29 7 0 11 11 9 25 -4 35 -11 37 -16 4z"/>
<path d="M8840 5040 c0 -11 2 -20 4 -20 2 0 6 9 9 20 3 11 1 20 -4 20 -5 0 -9
-9 -9 -20z"/>
<path d="M1401 5034 c0 -11 3 -14 6 -6 3 7 2 16 -1 19 -3 4 -6 -2 -5 -13z"/>
<path d="M1413 4878 c-1 -23 1 -47 5 -55 5 -7 7 9 6 37 -2 62 -9 74 -11 18z"/>
<path d="M1432 4750 c0 -19 4 -46 8 -60 6 -20 8 -21 8 -5 1 11 -3 38 -7 60
l-9 40 0 -35z"/>
<path d="M1449 4644 c-2 -35 3 -77 11 -98 6 -13 7 4 3 44 -6 66 -12 90 -14 54z"/>
<path d="M1460 4509 c0 -5 5 -7 10 -4 6 3 10 8 10 11 0 2 -4 4 -10 4 -5 0 -10
-5 -10 -11z"/>
<path d="M1467 4483 c-9 -9 -9 -53 1 -53 4 0 8 -19 10 -41 1 -23 7 -49 12 -58
5 -10 6 -35 3 -57 -3 -25 1 -50 11 -68 8 -16 13 -33 11 -37 -3 -4 2 -12 10
-19 18 -15 20 -44 3 -34 -10 6 -10 5 -1 -8 7 -8 10 -18 6 -21 -3 -4 -1 -7 6
-7 9 0 11 -8 8 -22 -8 -30 2 -68 18 -68 7 0 16 -7 19 -16 10 -26 6 -30 -11 -9
-14 18 -15 18 -9 2 3 -10 6 -23 6 -28 0 -6 5 -7 10 -4 10 6 15 -13 12 -47 -1
-10 3 -18 9 -18 5 0 7 -4 4 -10 -3 -5 -1 -10 5 -10 6 0 8 -5 5 -11 -4 -6 -4
-27 0 -46 5 -27 9 -33 16 -22 6 10 9 5 9 -17 0 -17 13 -57 29 -90 16 -32 41
-86 57 -119 16 -33 32 -62 36 -63 5 -2 6 -8 3 -12 -3 -5 5 -19 17 -31 13 -12
17 -19 11 -15 -7 4 -13 2 -13 -3 0 -6 7 -11 16 -11 10 0 14 -6 11 -14 -3 -8
-3 -17 1 -21 4 -4 7 -12 7 -18 1 -7 6 -11 13 -10 7 2 12 -2 12 -7 0 -6 4 -10
9 -10 8 0 -44 108 -58 120 -3 3 -6 10 -6 15 0 6 -23 55 -50 110 -28 55 -50
107 -50 115 0 8 -12 44 -27 80 -36 88 -41 103 -44 120 -1 8 -27 112 -57 230
-30 118 -58 238 -62 265 -4 28 -12 56 -17 62 -6 7 -8 20 -4 28 6 16 3 19 -7 8z
m103 -471 c0 -15 -2 -15 -10 -2 -13 20 -13 33 0 25 6 -3 10 -14 10 -23z"/>
<path d="M8658 4125 c-8 -19 -12 -35 -9 -35 4 0 15 16 24 35 9 19 13 35 9 35
-4 0 -15 -16 -24 -35z"/>
<path d="M8406 3503 c-4 -13 -12 -23 -17 -23 -5 0 -8 -3 -7 -7 3 -10 -45 -107
-54 -111 -5 -2 -8 -8 -8 -13 0 -20 19 3 42 49 12 26 31 59 41 75 10 15 17 33
14 40 -2 6 -7 2 -11 -10z"/>
<path d="M8296 3315 c-10 -8 -22 -12 -26 -10 -8 5 -30 -39 -30 -62 0 -32 16 2
19 41 1 4 7 6 15 3 9 -3 21 4 30 19 19 28 18 29 -8 9z"/>
<path d="M1840 3310 c0 -5 7 -10 15 -10 8 0 15 -4 15 -10 0 -5 -8 -6 -17 -3
-17 7 -17 6 -1 -10 10 -10 25 -31 35 -47 9 -17 21 -30 26 -30 4 0 5 -5 2 -10
-4 -6 -1 -9 7 -8 8 2 13 -6 13 -19 0 -13 5 -22 10 -22 17 1 6 39 -18 62 -13
12 -32 36 -43 52 -16 26 -16 28 -1 16 23 -18 21 -2 -2 27 -20 23 -41 29 -41
12z"/>
<path d="M8196 3175 c-17 -25 -16 -25 4 -13 11 7 20 18 20 25 0 19 -6 16 -24
-12z"/>
<path d="M1960 3121 c0 -5 5 -13 10 -16 6 -3 10 -2 10 4 0 5 -4 13 -10 16 -5
3 -10 2 -10 -4z"/>
<path d="M1956 3078 c9 -18 29 -47 43 -65 50 -60 91 -120 91 -132 0 -7 4 -10
9 -7 13 9 6 42 -9 38 -6 -1 -9 2 -5 7 3 6 -2 19 -12 29 -49 52 -72 81 -98 120
-33 50 -42 55 -19 10z"/>
<path d="M1992 3070 c14 -22 24 -19 15 5 -4 8 -11 15 -17 15 -6 0 -6 -7 2 -20z"/>
<path d="M8145 3079 c-4 -6 -5 -12 -2 -15 2 -3 7 2 10 11 7 17 1 20 -8 4z"/>
<path d="M8110 3035 c-8 -10 -16 -12 -19 -6 -4 6 -12 1 -20 -10 -7 -12 -8 -18
-2 -14 15 9 14 -8 -1 -23 -7 -7 -10 -12 -7 -12 3 0 20 18 38 40 17 22 30 40
28 40 -3 0 -10 -7 -17 -15z"/>
<path d="M7958 2878 c-35 -37 -67 -79 -72 -93 -7 -18 -15 -23 -28 -19 -10 3
-18 0 -18 -6 0 -6 5 -8 12 -4 7 5 8 3 4 -5 -5 -7 -10 -10 -13 -7 -10 10 -45
-16 -39 -29 3 -8 -7 -23 -21 -35 -14 -11 -24 -22 -21 -25 2 -3 27 17 54 43 27
27 66 61 87 76 21 16 35 31 32 35 -3 3 -10 -1 -15 -9 -5 -8 -12 -12 -15 -8 -4
4 21 35 54 70 34 34 61 67 61 73 0 5 4 4 9 -3 7 -11 9 -11 14 0 13 35 -27 9
-85 -54z"/>
<path d="M2120 2871 c0 -6 4 -13 10 -16 6 -3 7 1 4 9 -7 18 -14 21 -14 7z"/>
<path d="M2146 2828 c11 -20 113 -128 121 -128 3 0 -2 11 -11 25 -9 14 -14 31
-10 37 4 7 3 8 -4 4 -7 -4 -32 12 -58 36 -26 24 -43 36 -38 26z"/>
<path d="M2310 2828 c0 -3 12 -18 26 -34 17 -19 22 -22 16 -8 -10 20 -42 52
-42 42z"/>
<path d="M2285 2700 c3 -5 11 -10 16 -10 6 0 7 5 4 10 -3 6 -11 10 -16 10 -6
0 -7 -4 -4 -10z"/>
<path d="M2360 2675 c13 -14 26 -25 28 -25 3 0 -5 11 -18 25 -13 14 -26 25
-28 25 -3 0 5 -11 18 -25z"/>
<path d="M2300 2672 c0 -5 14 -21 31 -38 21 -19 28 -22 20 -9 -24 44 -51 69
-51 47z"/>
<path d="M2430 2650 c0 -5 5 -10 11 -10 5 0 7 5 4 10 -3 6 -8 10 -11 10 -2 0
-4 -4 -4 -10z"/>
<path d="M7673 2609 c-24 -17 -43 -27 -43 -24 0 3 -27 -9 -60 -27 -33 -17 -60
-34 -60 -37 0 -4 20 -5 45 -3 42 4 44 5 34 25 -9 16 -9 19 3 14 9 -3 28 3 43
13 16 11 34 16 39 12 21 -13 35 -10 53 11 11 12 12 17 3 12 -8 -5 -24 -10 -37
-11 -22 -3 -22 -2 5 21 37 33 26 30 -25 -6z"/>
<path d="M7757 2633 c-4 -3 -7 -11 -7 -17 0 -6 5 -5 12 2 6 6 9 14 7 17 -3 3
-9 2 -12 -2z"/>
<path d="M2475 2610 c3 -5 11 -10 16 -10 6 0 7 5 4 10 -3 6 -11 10 -16 10 -6
0 -7 -4 -4 -10z"/>
<path d="M2390 2582 c12 -18 24 -31 27 -28 3 2 -7 17 -22 33 l-28 28 23 -33z"/>
<path d="M2450 2585 c13 -14 26 -25 28 -25 3 0 -5 11 -18 25 -13 14 -26 25
-28 25 -3 0 5 -11 18 -25z"/>
<path d="M2505 2578 c7 -16 55 -52 54 -41 0 4 -13 18 -30 31 -16 13 -27 18
-24 10z"/>
<path d="M7630 2544 c-17 -9 -20 -14 -9 -14 9 0 22 7 29 15 15 18 13 18 -20
-1z"/>
<path d="M7480 2495 c-7 -8 -9 -15 -5 -15 5 0 -18 -17 -51 -38 -62 -40 -95
-72 -75 -72 6 0 11 4 11 8 0 5 29 27 64 51 35 23 66 51 69 61 6 24 3 25 -13 5z"/>
<path d="M2590 2446 c0 -2 7 -9 15 -16 9 -7 15 -8 15 -2 0 5 -7 12 -15 16 -8
3 -15 4 -15 2z"/>
<path d="M2530 2432 c0 -12 19 -26 26 -19 2 2 -2 10 -11 17 -9 8 -15 8 -15 2z"/>
<path d="M2573 2385 c0 -8 11 -25 24 -37 l23 -22 -3 22 c-4 27 -44 60 -44 37z"/>
<path d="M2805 2350 c3 -5 8 -10 11 -10 2 0 4 5 4 10 0 6 -5 10 -11 10 -5 0
-7 -4 -4 -10z"/>
<path d="M2744 2311 c6 -9 82 -51 93 -51 12 0 -10 17 -50 39 -41 23 -51 26
-43 12z"/>
<path d="M7079 2212 c-13 -11 -31 -22 -39 -25 -12 -4 -11 -6 3 -6 10 -1 25 5
33 13 7 8 19 16 26 19 7 2 10 7 7 11 -3 3 -17 -2 -30 -12z"/>
<path d="M2695 2190 c3 -5 8 -10 11 -10 2 0 4 5 4 10 0 6 -5 10 -11 10 -5 0
-7 -4 -4 -10z"/>
<path d="M2835 2050 c10 -11 20 -20 23 -20 3 0 -3 9 -13 20 -10 11 -20 20 -23
20 -3 0 3 -9 13 -20z"/>
<path d="M6999 2053 c-13 -16 -12 -17 4 -4 16 13 21 21 13 21 -2 0 -10 -8 -17
-17z"/>
<path d="M2980 1966 c0 -2 7 -7 16 -10 8 -3 12 -2 9 4 -6 10 -25 14 -25 6z"/>
<path d="M6613 1864 c-31 -13 -45 -34 -23 -34 6 0 10 4 10 9 0 4 17 15 38 24
20 8 30 15 22 15 -8 0 -30 -6 -47 -14z"/>
<path d="M6480 1801 c0 -5 9 -7 20 -4 11 3 20 7 20 9 0 2 -9 4 -20 4 -11 0
-20 -4 -20 -9z"/>
<path d="M5890 1560 c0 -12 17 -12 45 0 17 7 15 9 -12 9 -18 1 -33 -3 -33 -9z"/>
<path d="M5850 1550 c-8 -5 -10 -10 -5 -10 6 0 17 5 25 10 8 5 11 10 5 10 -5
0 -17 -5 -25 -10z"/>
<path d="M5165 1510 c-3 -5 -1 -10 4 -10 6 0 11 5 11 10 0 6 -2 10 -4 10 -3 0
-8 -4 -11 -10z"/>
<path d="M5630 1493 c-14 -3 -29 -9 -35 -15 -10 -10 31 -2 70 13 21 8 6 9 -35
2z"/>
<path d="M4438 1473 c7 -3 16 -2 19 1 4 3 -2 6 -13 5 -11 0 -14 -3 -6 -6z"/>
<path d="M5085 1471 c-5 -9 7 -12 42 -12 94 1 123 -1 123 -9 0 -17 29 -18 41
-2 8 9 9 14 5 10 -5 -4 -15 -3 -21 2 -19 16 -181 25 -190 11z"/>
<path d="M5385 1470 c-22 -4 -43 -6 -47 -3 -5 2 -8 -1 -8 -8 0 -14 77 -6 93
10 6 6 9 10 7 10 -3 -1 -23 -5 -45 -9z"/>
<path d="M5505 1473 c-27 -3 -54 -8 -61 -13 -6 -5 -28 -14 -50 -20 -38 -9 -37
-9 11 -4 28 3 52 10 53 15 2 5 22 9 45 10 23 0 51 4 62 9 11 5 13 8 5 7 -8 0
-37 -2 -65 -4z"/>
<path d="M4566 1461 c5 -5 45 -11 89 -14 53 -4 68 -3 45 2 -56 14 -144 21
-134 12z"/>
<path d="M4428 1453 c7 -3 16 -2 19 1 4 3 -2 6 -13 5 -11 0 -14 -3 -6 -6z"/>
<path d="M4618 1433 c7 -3 16 -2 19 1 4 3 -2 6 -13 5 -11 0 -14 -3 -6 -6z"/>
<path d="M4748 1433 c7 -3 16 -2 19 1 4 3 -2 6 -13 5 -11 0 -14 -3 -6 -6z"/>
<path d="M4790 1430 c8 -5 20 -10 25 -10 6 0 3 5 -5 10 -8 5 -19 10 -25 10 -5
0 -3 -5 5 -10z"/>
</g>
</svg>
